<mxfile host="Electron" agent="Mozilla/5.0 (Windows NT 10.0; Win64; x64) AppleWebKit/537.36 (KHTML, like Gecko) draw.io/24.7.17 Chrome/128.0.6613.36 Electron/32.0.1 Safari/537.36" version="24.7.17">
  <diagram id="C5RBs43oDa-KdzZeNtuy" name="Page-1">
    <mxGraphModel dx="1629" dy="943" grid="1" gridSize="10" guides="1" tooltips="1" connect="1" arrows="1" fold="1" page="1" pageScale="1" pageWidth="827" pageHeight="1169" math="0" shadow="0">
      <root>
        <mxCell id="WIyWlLk6GJQsqaUBKTNV-0" />
        <mxCell id="WIyWlLk6GJQsqaUBKTNV-1" parent="WIyWlLk6GJQsqaUBKTNV-0" />
        <mxCell id="NJygufZ97vCidX4F9ACJ-2" value="" style="edgeStyle=orthogonalEdgeStyle;rounded=0;orthogonalLoop=1;jettySize=auto;html=1;" edge="1" parent="WIyWlLk6GJQsqaUBKTNV-1" source="NJygufZ97vCidX4F9ACJ-0" target="NJygufZ97vCidX4F9ACJ-1">
          <mxGeometry relative="1" as="geometry" />
        </mxCell>
        <mxCell id="NJygufZ97vCidX4F9ACJ-0" value="Bắt đầu" style="ellipse;whiteSpace=wrap;html=1;" vertex="1" parent="WIyWlLk6GJQsqaUBKTNV-1">
          <mxGeometry x="220" y="260" width="120" height="80" as="geometry" />
        </mxCell>
        <mxCell id="NJygufZ97vCidX4F9ACJ-4" value="" style="edgeStyle=orthogonalEdgeStyle;rounded=0;orthogonalLoop=1;jettySize=auto;html=1;" edge="1" parent="WIyWlLk6GJQsqaUBKTNV-1" source="NJygufZ97vCidX4F9ACJ-1" target="NJygufZ97vCidX4F9ACJ-3">
          <mxGeometry relative="1" as="geometry" />
        </mxCell>
        <mxCell id="NJygufZ97vCidX4F9ACJ-1" value="Nhập a, b" style="shape=parallelogram;perimeter=parallelogramPerimeter;whiteSpace=wrap;html=1;fixedSize=1;" vertex="1" parent="WIyWlLk6GJQsqaUBKTNV-1">
          <mxGeometry x="220" y="430" width="120" height="60" as="geometry" />
        </mxCell>
        <mxCell id="NJygufZ97vCidX4F9ACJ-6" value="" style="edgeStyle=orthogonalEdgeStyle;rounded=0;orthogonalLoop=1;jettySize=auto;html=1;" edge="1" parent="WIyWlLk6GJQsqaUBKTNV-1" source="NJygufZ97vCidX4F9ACJ-3" target="NJygufZ97vCidX4F9ACJ-5">
          <mxGeometry relative="1" as="geometry" />
        </mxCell>
        <mxCell id="NJygufZ97vCidX4F9ACJ-11" value="False" style="edgeStyle=orthogonalEdgeStyle;rounded=0;orthogonalLoop=1;jettySize=auto;html=1;" edge="1" parent="WIyWlLk6GJQsqaUBKTNV-1" source="NJygufZ97vCidX4F9ACJ-3" target="NJygufZ97vCidX4F9ACJ-10">
          <mxGeometry relative="1" as="geometry" />
        </mxCell>
        <mxCell id="NJygufZ97vCidX4F9ACJ-3" value="a = 0" style="rhombus;whiteSpace=wrap;html=1;" vertex="1" parent="WIyWlLk6GJQsqaUBKTNV-1">
          <mxGeometry x="240" y="560" width="80" height="80" as="geometry" />
        </mxCell>
        <mxCell id="NJygufZ97vCidX4F9ACJ-7" value="True" style="edgeStyle=orthogonalEdgeStyle;rounded=0;orthogonalLoop=1;jettySize=auto;html=1;" edge="1" parent="WIyWlLk6GJQsqaUBKTNV-1" source="NJygufZ97vCidX4F9ACJ-5" target="NJygufZ97vCidX4F9ACJ-3">
          <mxGeometry relative="1" as="geometry" />
        </mxCell>
        <mxCell id="NJygufZ97vCidX4F9ACJ-13" value="True" style="edgeStyle=orthogonalEdgeStyle;rounded=0;orthogonalLoop=1;jettySize=auto;html=1;" edge="1" parent="WIyWlLk6GJQsqaUBKTNV-1" source="NJygufZ97vCidX4F9ACJ-5" target="NJygufZ97vCidX4F9ACJ-12">
          <mxGeometry relative="1" as="geometry" />
        </mxCell>
        <mxCell id="NJygufZ97vCidX4F9ACJ-15" value="False" style="edgeStyle=orthogonalEdgeStyle;rounded=0;orthogonalLoop=1;jettySize=auto;html=1;" edge="1" parent="WIyWlLk6GJQsqaUBKTNV-1" source="NJygufZ97vCidX4F9ACJ-5" target="NJygufZ97vCidX4F9ACJ-14">
          <mxGeometry relative="1" as="geometry" />
        </mxCell>
        <mxCell id="NJygufZ97vCidX4F9ACJ-5" value="b = 0" style="rhombus;whiteSpace=wrap;html=1;" vertex="1" parent="WIyWlLk6GJQsqaUBKTNV-1">
          <mxGeometry x="80" y="560" width="80" height="80" as="geometry" />
        </mxCell>
        <mxCell id="NJygufZ97vCidX4F9ACJ-17" value="" style="edgeStyle=orthogonalEdgeStyle;rounded=0;orthogonalLoop=1;jettySize=auto;html=1;" edge="1" parent="WIyWlLk6GJQsqaUBKTNV-1" source="NJygufZ97vCidX4F9ACJ-10" target="NJygufZ97vCidX4F9ACJ-16">
          <mxGeometry relative="1" as="geometry" />
        </mxCell>
        <mxCell id="NJygufZ97vCidX4F9ACJ-10" value="Tính x = -b/a" style="whiteSpace=wrap;html=1;" vertex="1" parent="WIyWlLk6GJQsqaUBKTNV-1">
          <mxGeometry x="380" y="570" width="120" height="60" as="geometry" />
        </mxCell>
        <mxCell id="NJygufZ97vCidX4F9ACJ-12" value="Vô số nghiệm" style="shape=parallelogram;perimeter=parallelogramPerimeter;whiteSpace=wrap;html=1;fixedSize=1;" vertex="1" parent="WIyWlLk6GJQsqaUBKTNV-1">
          <mxGeometry x="-80" y="730" width="120" height="60" as="geometry" />
        </mxCell>
        <mxCell id="NJygufZ97vCidX4F9ACJ-14" value="Vô nghiệm" style="shape=parallelogram;perimeter=parallelogramPerimeter;whiteSpace=wrap;html=1;fixedSize=1;" vertex="1" parent="WIyWlLk6GJQsqaUBKTNV-1">
          <mxGeometry x="60" y="730" width="120" height="60" as="geometry" />
        </mxCell>
        <mxCell id="NJygufZ97vCidX4F9ACJ-16" value="In ra đáp án X" style="shape=parallelogram;perimeter=parallelogramPerimeter;whiteSpace=wrap;html=1;fixedSize=1;" vertex="1" parent="WIyWlLk6GJQsqaUBKTNV-1">
          <mxGeometry x="380" y="730" width="120" height="60" as="geometry" />
        </mxCell>
        <mxCell id="NJygufZ97vCidX4F9ACJ-18" value="Kết thúc" style="ellipse;whiteSpace=wrap;html=1;" vertex="1" parent="WIyWlLk6GJQsqaUBKTNV-1">
          <mxGeometry x="220" y="840" width="120" height="80" as="geometry" />
        </mxCell>
        <mxCell id="NJygufZ97vCidX4F9ACJ-19" value="" style="endArrow=classic;html=1;rounded=0;exitX=0.5;exitY=1;exitDx=0;exitDy=0;entryX=0;entryY=0.5;entryDx=0;entryDy=0;" edge="1" parent="WIyWlLk6GJQsqaUBKTNV-1" source="NJygufZ97vCidX4F9ACJ-12" target="NJygufZ97vCidX4F9ACJ-18">
          <mxGeometry width="50" height="50" relative="1" as="geometry">
            <mxPoint x="-20" y="920" as="sourcePoint" />
            <mxPoint x="30" y="870" as="targetPoint" />
            <Array as="points">
              <mxPoint x="-20" y="880" />
            </Array>
          </mxGeometry>
        </mxCell>
        <mxCell id="NJygufZ97vCidX4F9ACJ-20" value="" style="endArrow=none;html=1;rounded=0;exitX=0.5;exitY=1;exitDx=0;exitDy=0;" edge="1" parent="WIyWlLk6GJQsqaUBKTNV-1" source="NJygufZ97vCidX4F9ACJ-14">
          <mxGeometry width="50" height="50" relative="1" as="geometry">
            <mxPoint x="180" y="670" as="sourcePoint" />
            <mxPoint x="120" y="880" as="targetPoint" />
          </mxGeometry>
        </mxCell>
        <mxCell id="NJygufZ97vCidX4F9ACJ-21" value="" style="endArrow=classic;html=1;rounded=0;exitX=0.5;exitY=1;exitDx=0;exitDy=0;entryX=1;entryY=0.5;entryDx=0;entryDy=0;" edge="1" parent="WIyWlLk6GJQsqaUBKTNV-1" source="NJygufZ97vCidX4F9ACJ-16" target="NJygufZ97vCidX4F9ACJ-18">
          <mxGeometry width="50" height="50" relative="1" as="geometry">
            <mxPoint x="-10" y="800" as="sourcePoint" />
            <mxPoint x="230" y="890" as="targetPoint" />
            <Array as="points">
              <mxPoint x="440" y="880" />
            </Array>
          </mxGeometry>
        </mxCell>
      </root>
    </mxGraphModel>
  </diagram>
</mxfile>
